<?xml version="1.0" standalone="no"?>
<!DOCTYPE svg PUBLIC "-//W3C//DTD SVG 20010904//EN"
 "http://www.w3.org/TR/2001/REC-SVG-20010904/DTD/svg10.dtd">
<svg version="1.0" xmlns="http://www.w3.org/2000/svg"
 width="330.000000pt" height="330.000000pt" viewBox="0 0 330.000000 330.000000"
 preserveAspectRatio="xMidYMid meet">
<metadata>
Created by potrace 1.11, written by Peter Selinger 2001-2013
</metadata>
<g transform="translate(0.000000,330.000000) scale(0.100000,-0.100000)"
fill="#000000" stroke="none">
<path d="M480 3085 c-69 -7 -141 -14 -160 -15 -31 -1 -33 -3 -16 -13 10 -7 67
-46 126 -87 324 -225 502 -409 630 -652 27 -52 59 -103 71 -114 26 -24 111
-24 159 1 95 48 188 158 243 288 26 61 31 85 31 157 1 97 -13 132 -85 213 -86
99 -218 172 -379 213 -89 22 -450 28 -620 9z"/>
<path d="M2231 3086 c-168 -32 -276 -84 -381 -183 -154 -145 -174 -253 -80
-448 85 -175 229 -291 338 -270 47 9 71 36 120 133 118 236 325 448 662 676
l105 71 -95 12 c-152 20 -580 25 -669 9z"/>
<path d="M214 2933 c-4 -48 -4 -259 0 -468 7 -409 15 -483 60 -559 124 -211
491 -261 662 -90 101 101 122 319 45 481 -59 123 -258 352 -434 499 -87 73
-191 147 -279 198 l-46 27 -8 -88z"/>
<path d="M2934 2942 c-208 -136 -375 -291 -526 -487 -99 -127 -131 -195 -148
-312 -18 -132 20 -262 99 -336 182 -170 554 -105 660 116 43 88 50 162 54 572
4 378 0 525 -12 525 -4 0 -61 -35 -127 -78z"/>
<path d="M514 1555 c-115 -25 -219 -94 -269 -179 -53 -91 -58 -142 -59 -643 0
-254 2 -464 6 -468 3 -4 37 13 75 36 195 122 379 283 531 464 155 184 196 277
195 435 -1 204 -98 324 -287 359 -75 14 -115 13 -192 -4z"/>
<path d="M2530 1531 c-241 -77 -428 -309 -336 -418 13 -15 67 -50 120 -77 129
-67 239 -152 367 -282 102 -105 240 -281 324 -411 22 -35 43 -63 46 -63 10 0
39 380 39 505 -1 294 -67 498 -209 643 -115 118 -215 147 -351 103z"/>
<path d="M1102 1074 c-12 -8 -40 -50 -61 -92 -133 -262 -317 -453 -665 -691
-66 -44 -115 -81 -110 -81 5 0 74 -6 154 -14 247 -24 351 -28 475 -17 240 21
396 83 520 205 115 114 144 197 111 325 -36 140 -155 305 -258 357 -56 28
-132 32 -166 8z"/>
<path d="M1950 995 c-159 -45 -250 -174 -250 -357 0 -130 39 -236 118 -320
100 -108 141 -115 652 -123 223 -3 435 -2 472 2 l67 8 -46 75 c-143 235 -391
497 -603 638 -119 79 -289 111 -410 77z"/>
</g>
</svg>
